<svg width="183" height="27" viewBox="0 0 183 27" fill="none" xmlns="http://www.w3.org/2000/svg">
<path d="M47.6212 12.1733C48.2871 13.0131 48.6184 13.9742 48.6184 15.0599C48.6184 16.0407 48.3789 16.9001 47.8967 17.6448C47.4145 18.3894 46.7191 18.97 45.8105 19.3898C44.9019 19.8097 43.8259 20.0197 42.5827 20.0197H33.5981V1.70605H42.2416C43.4848 1.70605 44.5542 1.90616 45.4562 2.30963C46.3583 2.7131 47.0406 3.27074 47.5031 3.98911C47.9656 4.70748 48.1985 5.52098 48.1985 6.42961C48.1985 7.49569 47.9131 8.38791 47.3456 9.10628C46.7782 9.82465 46.0204 10.3298 45.0757 10.6283C46.109 10.8219 46.9553 11.3369 47.6212 12.1766V12.1733ZM37.272 9.26045H41.7167C42.5926 9.26045 43.265 9.06364 43.7374 8.67001C44.2097 8.27638 44.4459 7.71218 44.4459 6.97741C44.4459 6.24263 44.2097 5.67516 43.7374 5.27169C43.265 4.86822 42.5926 4.66811 41.7167 4.66811H37.272V9.26045ZM44.1441 16.395C44.6427 15.9751 44.892 15.3814 44.892 14.6105C44.892 13.8397 44.6296 13.2066 44.1048 12.7605C43.5799 12.3144 42.8714 12.0913 41.9792 12.0913H37.272V17.0248H42.0579C42.9501 17.0248 43.6455 16.8148 44.1441 16.395Z" fill="#0F0F0F"/>
<path d="M64.439 13.8525H53.8143C53.9029 14.9021 54.2703 15.7255 54.9165 16.3192C55.5627 16.9129 56.3598 17.2114 57.3045 17.2114C58.6691 17.2114 59.64 16.6243 60.2174 15.4532H64.1799C63.76 16.8539 62.9564 18.002 61.7656 18.904C60.5749 19.8061 59.1152 20.2555 57.3832 20.2555C55.9826 20.2555 54.7295 19.9439 53.6175 19.3239C52.5055 18.704 51.6395 17.8248 51.0196 16.6866C50.3996 15.5484 50.088 14.2395 50.088 12.7503C50.088 11.2611 50.393 9.92603 51.0064 8.78778C51.6198 7.64954 52.476 6.777 53.5781 6.16359C54.6803 5.55019 55.9465 5.24512 57.3832 5.24512C58.82 5.24512 60.0009 5.54362 61.0965 6.13734C62.1888 6.73107 63.0384 7.57737 63.6419 8.66969C64.2455 9.76201 64.5473 11.0183 64.5473 12.4354C64.5473 12.9603 64.5112 13.4326 64.4423 13.8525H64.439ZM60.7389 11.3857C60.7225 10.441 60.3814 9.68329 59.7155 9.11581C59.0496 8.54833 58.2361 8.26294 57.275 8.26294C56.3664 8.26294 55.5988 8.53848 54.9788 9.08956C54.3589 9.64064 53.9783 10.4049 53.8373 11.3857H60.7389Z" fill="#0F0F0F"/>
<path d="M69.0543 19.6126C68.1096 19.1829 67.3617 18.6023 66.8106 17.8675C66.2595 17.1327 65.9577 16.3192 65.9053 15.427H69.6054C69.6742 15.9879 69.9498 16.4504 70.432 16.8178C70.9142 17.1852 71.5112 17.3689 72.2295 17.3689C72.9479 17.3689 73.476 17.2278 73.8697 16.949C74.2633 16.6702 74.4601 16.3094 74.4601 15.8731C74.4601 15.4007 74.2207 15.0465 73.7385 14.8103C73.2563 14.5741 72.492 14.315 71.4423 14.0362C70.3565 13.7738 69.4709 13.5015 68.7787 13.2227C68.0866 12.9438 67.4929 12.5141 66.9943 11.9368C66.4957 11.3595 66.2464 10.5821 66.2464 9.60128C66.2464 8.79762 66.4793 8.06284 66.9418 7.39696C67.4043 6.73107 68.0702 6.20623 68.9362 5.82244C69.8022 5.43865 70.8223 5.24512 71.9934 5.24512C73.7253 5.24512 75.1063 5.67811 76.1396 6.54409C77.1729 7.41007 77.7404 8.57785 77.8453 10.0474H74.3289C74.2764 9.47007 74.037 9.01084 73.6073 8.66969C73.1775 8.32855 72.6068 8.15797 71.8884 8.15797C71.2225 8.15797 70.7108 8.27934 70.3533 8.52536C69.9957 8.77138 69.8153 9.11252 69.8153 9.54879C69.8153 10.0375 70.0613 10.4115 70.5501 10.6641C71.0388 10.9167 71.7998 11.1758 72.8331 11.4382C73.8828 11.7006 74.7488 11.9729 75.4311 12.2517C76.1134 12.5305 76.7038 12.9635 77.2024 13.5507C77.701 14.1379 77.9601 14.912 77.9765 15.8731C77.9765 16.7128 77.7436 17.464 77.2811 18.1299C76.8186 18.7958 76.1527 19.3141 75.2867 19.6913C74.4208 20.0685 73.4104 20.2555 72.2558 20.2555C71.1011 20.2555 69.999 20.0423 69.0543 19.6126Z" fill="#0F0F0F"/>
<path d="M85.7343 5.91771C86.5642 5.47159 87.5122 5.24854 88.5816 5.24854C89.8248 5.24854 90.9466 5.55359 91.9537 6.167C92.9607 6.7804 93.7545 7.64967 94.3417 8.77807C94.9288 9.90647 95.2208 11.2153 95.2208 12.7012C95.2208 14.1872 94.9288 15.5058 94.3417 16.6507C93.7545 17.7955 92.9607 18.6844 91.9537 19.3142C90.9466 19.944 89.8248 20.2589 88.5816 20.2589C87.5155 20.2589 86.5741 20.0391 85.7606 19.6029C84.9471 19.1666 84.2877 18.6155 83.7793 17.9496V26.9473H80.1054V5.48471H83.7793V7.58407C84.2517 6.91818 84.9044 6.36382 85.7343 5.91771ZM90.9302 10.4313C90.5727 9.79167 90.1003 9.30619 89.5132 8.97489C88.926 8.64358 88.2929 8.47629 87.6106 8.47629C86.9283 8.47629 86.3215 8.64686 85.7343 8.98801C85.1472 9.32915 84.6748 9.82447 84.3173 10.4707C83.9597 11.1169 83.7793 11.8779 83.7793 12.7537C83.7793 13.6296 83.9597 14.3906 84.3173 15.0368C84.6748 15.683 85.1472 16.1783 85.7343 16.5194C86.3215 16.8606 86.9447 17.0312 87.6106 17.0312C88.2765 17.0312 88.926 16.8573 89.5132 16.5063C90.1003 16.1553 90.5727 15.6567 90.9302 15.0105C91.2878 14.3643 91.4682 13.5935 91.4682 12.7012C91.4682 11.809 91.2878 11.071 90.9302 10.4313Z" fill="#0F0F0F"/>
<path d="M100.407 19.3239C99.2883 18.704 98.4092 17.8248 97.7696 16.6866C97.1299 15.5484 96.8117 14.2395 96.8117 12.7503C96.8117 11.2611 97.1397 9.95227 97.7958 8.81402C98.4518 7.67578 99.3474 6.79667 100.486 6.1767C101.624 5.55674 102.89 5.24512 104.291 5.24512C105.691 5.24512 106.958 5.55674 108.096 6.1767C109.234 6.79667 110.13 7.67578 110.786 8.81402C111.442 9.95227 111.77 11.2644 111.77 12.7503C111.77 14.2363 111.432 15.5484 110.759 16.6866C110.087 17.8248 109.175 18.704 108.03 19.3239C106.885 19.9439 105.603 20.2555 104.186 20.2555C102.769 20.2555 101.525 19.9439 100.407 19.3239ZM106.062 16.5685C106.649 16.2438 107.115 15.7583 107.466 15.1121C107.817 14.4659 107.991 13.6786 107.991 12.7503C107.991 11.3693 107.627 10.3065 106.902 9.56192C106.177 8.8173 105.288 8.44664 104.238 8.44664C103.189 8.44664 102.309 8.8173 101.601 9.56192C100.892 10.3065 100.538 11.3693 100.538 12.7503C100.538 14.1313 100.883 15.1941 101.575 15.9387C102.267 16.6833 103.136 17.054 104.186 17.054C104.852 17.054 105.475 16.8933 106.062 16.5685Z" fill="#0F0F0F"/>
<path d="M122.188 20.0197L117.254 13.8266V20.0197H113.58V1.70605H117.254V11.6485L122.135 5.48162H126.911L120.508 12.7769L126.964 20.0197H122.188Z" fill="#0F0F0F"/>
<path d="M141.423 13.8525H130.798C130.887 14.9021 131.254 15.7255 131.9 16.3192C132.547 16.9129 133.344 17.2114 134.288 17.2114C135.653 17.2114 136.624 16.6243 137.201 15.4532H141.164C140.744 16.8539 139.94 18.002 138.75 18.904C137.559 19.8061 136.099 20.2555 134.367 20.2555C132.967 20.2555 131.713 19.9439 130.601 19.3239C129.489 18.704 128.624 17.8248 128.004 16.6866C127.384 15.5484 127.072 14.2395 127.072 12.7503C127.072 11.2611 127.377 9.92603 127.99 8.78778C128.604 7.64954 129.46 6.777 130.562 6.16359C131.664 5.55019 132.93 5.24512 134.367 5.24512C135.804 5.24512 136.985 5.54362 138.08 6.13734C139.173 6.73107 140.022 7.57737 140.626 8.66969C141.229 9.76201 141.531 11.0183 141.531 12.4354C141.531 12.9603 141.495 13.4326 141.426 13.8525H141.423ZM137.723 11.3857C137.707 10.441 137.365 9.68329 136.699 9.11581C136.034 8.54833 135.22 8.26294 134.259 8.26294C133.35 8.26294 132.583 8.53848 131.963 9.08956C131.343 9.64064 130.962 10.4049 130.821 11.3857H137.723Z" fill="#0F0F0F"/>
<path d="M146.278 18.0779H155.216V20.0198H143.89V1.73242H146.278V18.0779Z" fill="#0F0F0F"/>
<path d="M157.316 2.83437C157.001 2.51947 156.843 2.13569 156.843 1.67973C156.843 1.22378 157.001 0.839993 157.316 0.52509C157.631 0.210187 158.014 0.0527344 158.47 0.0527344C158.926 0.0527344 159.281 0.210187 159.586 0.52509C159.891 0.839993 160.045 1.22378 160.045 1.67973C160.045 2.13569 159.891 2.51947 159.586 2.83437C159.281 3.14928 158.907 3.30673 158.47 3.30673C158.034 3.30673 157.631 3.14928 157.316 2.83437ZM159.625 5.64226V20.0196H157.237V5.64226H159.625Z" fill="#0F0F0F"/>
<path d="M165.29 19.6916C164.414 19.3143 163.725 18.7895 163.217 18.117C162.708 17.4446 162.43 16.6705 162.377 15.7946H164.844C164.913 16.513 165.251 17.0969 165.854 17.5528C166.458 18.0088 167.248 18.2351 168.229 18.2351C169.138 18.2351 169.856 18.035 170.381 17.6316C170.906 17.2281 171.168 16.7229 171.168 16.1095C171.168 15.4961 170.889 15.0107 170.328 14.7056C169.768 14.4005 168.902 14.0988 167.731 13.8003C166.664 13.5214 165.792 13.236 165.119 12.9474C164.447 12.6587 163.87 12.229 163.387 11.6615C162.905 11.094 162.666 10.3462 162.666 9.41784C162.666 8.68307 162.886 8.01062 163.322 7.39721C163.758 6.78381 164.381 6.29833 165.185 5.94079C165.989 5.58324 166.907 5.40283 167.94 5.40283C169.531 5.40283 170.817 5.8063 171.798 6.60996C172.779 7.41362 173.304 8.51577 173.373 9.91644H170.985C170.932 9.16526 170.63 8.5617 170.079 8.10575C169.528 7.64979 168.79 7.42346 167.862 7.42346C167.006 7.42346 166.323 7.60715 165.815 7.97454C165.306 8.34193 165.054 8.82412 165.054 9.41784C165.054 9.8902 165.208 10.2805 165.513 10.5856C165.818 10.8907 166.205 11.1367 166.668 11.3204C167.13 11.5041 167.773 11.7107 168.596 11.9371C169.626 12.2159 170.466 12.4914 171.116 12.7637C171.762 13.036 172.32 13.4427 172.782 13.9839C173.245 14.5252 173.487 15.2337 173.504 16.1095C173.504 16.8968 173.284 17.6053 172.848 18.2351C172.411 18.8649 171.795 19.3603 170.998 19.7178C170.201 20.0753 169.289 20.2558 168.255 20.2558C167.153 20.2558 166.166 20.0688 165.29 19.6916Z" fill="#0F0F0F"/>
<path d="M179.247 7.60711V16.08C179.247 16.7787 179.395 17.274 179.694 17.5627C179.992 17.8513 180.507 17.9956 181.242 17.9956H183V20.0163H180.848C179.52 20.0163 178.523 19.7112 177.857 19.0978C177.191 18.4844 176.859 17.4806 176.859 16.08V7.60711H174.996V5.63897H176.859V2.01758H179.247V5.63897H183V7.60711H179.247Z" fill="#0F0F0F"/>
<path d="M20.0948 6.93149C19.8291 5.65875 19.196 4.52051 18.307 3.63157C17.1163 2.44084 15.4696 1.70605 13.6556 1.70605H6.57032L5.55017 4.55003L4.72027 6.8626L3.70011 9.70657H17.3853L19.0713 9.77874C19.9078 9.81482 20.7246 10.0576 21.4233 10.5201C21.5643 10.6119 21.689 10.7103 21.7841 10.8022C22.4598 11.4779 22.8764 12.4095 22.8764 13.4428C22.8764 15.506 21.2035 17.1757 19.1435 17.1757H4.04454L4.87444 14.8631H13.6524C16.411 14.8631 18.7761 13.1639 19.7471 10.753H16.4504C15.7648 11.5304 14.7644 12.0191 13.6491 12.0191H2.87021L1.85006 14.8631L1.02016 17.1757L0 20.0197H19.0024C22.6533 20.0197 25.7499 17.0346 25.7171 13.3837C25.6876 10.0969 23.2504 7.38744 20.0882 6.93149H20.0948ZM7.74466 6.8626L8.57127 4.55003H13.6524C14.3904 4.55003 15.076 4.76324 15.6533 5.13063C16.2995 5.54066 16.8112 6.14423 17.1065 6.85932H7.74466V6.8626Z" fill="#C4A784"/>
</svg>
