<?xml version="1.0" encoding="utf-8"?>
<svg xmlns="http://www.w3.org/2000/svg" xmlns:xlink="http://www.w3.org/1999/xlink" style="margin: auto; background: none; display: block; shape-rendering: auto;" width="200px" height="200px" viewBox="0 0 100 100" preserveAspectRatio="xMidYMid">
<g transform="rotate(0 50 50)">
  <rect x="49.5" y="18.5" rx="0.5" ry="12.5" width="1" height="25" fill="#7a7a7a">
    <animate attributeName="opacity" values="1;0" keyTimes="0;1" dur="1s" begin="-0.9818181818181818s" repeatCount="indefinite"></animate>
  </rect>
</g><g transform="rotate(6.545454545454546 50 50)">
  <rect x="49.5" y="18.5" rx="0.5" ry="12.5" width="1" height="25" fill="#7a7a7a">
    <animate attributeName="opacity" values="1;0" keyTimes="0;1" dur="1s" begin="-0.9636363636363636s" repeatCount="indefinite"></animate>
  </rect>
</g><g transform="rotate(13.090909090909092 50 50)">
  <rect x="49.5" y="18.5" rx="0.5" ry="12.5" width="1" height="25" fill="#7a7a7a">
    <animate attributeName="opacity" values="1;0" keyTimes="0;1" dur="1s" begin="-0.9454545454545454s" repeatCount="indefinite"></animate>
  </rect>
</g><g transform="rotate(19.636363636363637 50 50)">
  <rect x="49.5" y="18.5" rx="0.5" ry="12.5" width="1" height="25" fill="#7a7a7a">
    <animate attributeName="opacity" values="1;0" keyTimes="0;1" dur="1s" begin="-0.9272727272727272s" repeatCount="indefinite"></animate>
  </rect>
</g><g transform="rotate(26.181818181818183 50 50)">
  <rect x="49.5" y="18.5" rx="0.5" ry="12.5" width="1" height="25" fill="#7a7a7a">
    <animate attributeName="opacity" values="1;0" keyTimes="0;1" dur="1s" begin="-0.9090909090909091s" repeatCount="indefinite"></animate>
  </rect>
</g><g transform="rotate(32.72727272727273 50 50)">
  <rect x="49.5" y="18.5" rx="0.5" ry="12.5" width="1" height="25" fill="#7a7a7a">
    <animate attributeName="opacity" values="1;0" keyTimes="0;1" dur="1s" begin="-0.8909090909090909s" repeatCount="indefinite"></animate>
  </rect>
</g><g transform="rotate(39.27272727272727 50 50)">
  <rect x="49.5" y="18.5" rx="0.5" ry="12.5" width="1" height="25" fill="#7a7a7a">
    <animate attributeName="opacity" values="1;0" keyTimes="0;1" dur="1s" begin="-0.8727272727272727s" repeatCount="indefinite"></animate>
  </rect>
</g><g transform="rotate(45.81818181818182 50 50)">
  <rect x="49.5" y="18.5" rx="0.5" ry="12.5" width="1" height="25" fill="#7a7a7a">
    <animate attributeName="opacity" values="1;0" keyTimes="0;1" dur="1s" begin="-0.8545454545454545s" repeatCount="indefinite"></animate>
  </rect>
</g><g transform="rotate(52.36363636363637 50 50)">
  <rect x="49.5" y="18.5" rx="0.5" ry="12.5" width="1" height="25" fill="#7a7a7a">
    <animate attributeName="opacity" values="1;0" keyTimes="0;1" dur="1s" begin="-0.8363636363636363s" repeatCount="indefinite"></animate>
  </rect>
</g><g transform="rotate(58.90909090909091 50 50)">
  <rect x="49.5" y="18.5" rx="0.5" ry="12.5" width="1" height="25" fill="#7a7a7a">
    <animate attributeName="opacity" values="1;0" keyTimes="0;1" dur="1s" begin="-0.8181818181818182s" repeatCount="indefinite"></animate>
  </rect>
</g><g transform="rotate(65.45454545454545 50 50)">
  <rect x="49.5" y="18.5" rx="0.5" ry="12.5" width="1" height="25" fill="#7a7a7a">
    <animate attributeName="opacity" values="1;0" keyTimes="0;1" dur="1s" begin="-0.8s" repeatCount="indefinite"></animate>
  </rect>
</g><g transform="rotate(72 50 50)">
  <rect x="49.5" y="18.5" rx="0.5" ry="12.5" width="1" height="25" fill="#7a7a7a">
    <animate attributeName="opacity" values="1;0" keyTimes="0;1" dur="1s" begin="-0.7818181818181819s" repeatCount="indefinite"></animate>
  </rect>
</g><g transform="rotate(78.54545454545455 50 50)">
  <rect x="49.5" y="18.5" rx="0.5" ry="12.5" width="1" height="25" fill="#7a7a7a">
    <animate attributeName="opacity" values="1;0" keyTimes="0;1" dur="1s" begin="-0.7636363636363637s" repeatCount="indefinite"></animate>
  </rect>
</g><g transform="rotate(85.0909090909091 50 50)">
  <rect x="49.5" y="18.5" rx="0.5" ry="12.5" width="1" height="25" fill="#7a7a7a">
    <animate attributeName="opacity" values="1;0" keyTimes="0;1" dur="1s" begin="-0.7454545454545455s" repeatCount="indefinite"></animate>
  </rect>
</g><g transform="rotate(91.63636363636364 50 50)">
  <rect x="49.5" y="18.5" rx="0.5" ry="12.5" width="1" height="25" fill="#7a7a7a">
    <animate attributeName="opacity" values="1;0" keyTimes="0;1" dur="1s" begin="-0.7272727272727273s" repeatCount="indefinite"></animate>
  </rect>
</g><g transform="rotate(98.18181818181819 50 50)">
  <rect x="49.5" y="18.5" rx="0.5" ry="12.5" width="1" height="25" fill="#7a7a7a">
    <animate attributeName="opacity" values="1;0" keyTimes="0;1" dur="1s" begin="-0.7090909090909091s" repeatCount="indefinite"></animate>
  </rect>
</g><g transform="rotate(104.72727272727273 50 50)">
  <rect x="49.5" y="18.5" rx="0.5" ry="12.5" width="1" height="25" fill="#7a7a7a">
    <animate attributeName="opacity" values="1;0" keyTimes="0;1" dur="1s" begin="-0.6909090909090909s" repeatCount="indefinite"></animate>
  </rect>
</g><g transform="rotate(111.27272727272727 50 50)">
  <rect x="49.5" y="18.5" rx="0.5" ry="12.5" width="1" height="25" fill="#7a7a7a">
    <animate attributeName="opacity" values="1;0" keyTimes="0;1" dur="1s" begin="-0.6727272727272727s" repeatCount="indefinite"></animate>
  </rect>
</g><g transform="rotate(117.81818181818181 50 50)">
  <rect x="49.5" y="18.5" rx="0.5" ry="12.5" width="1" height="25" fill="#7a7a7a">
    <animate attributeName="opacity" values="1;0" keyTimes="0;1" dur="1s" begin="-0.6545454545454545s" repeatCount="indefinite"></animate>
  </rect>
</g><g transform="rotate(124.36363636363636 50 50)">
  <rect x="49.5" y="18.5" rx="0.5" ry="12.5" width="1" height="25" fill="#7a7a7a">
    <animate attributeName="opacity" values="1;0" keyTimes="0;1" dur="1s" begin="-0.6363636363636364s" repeatCount="indefinite"></animate>
  </rect>
</g><g transform="rotate(130.9090909090909 50 50)">
  <rect x="49.5" y="18.5" rx="0.5" ry="12.5" width="1" height="25" fill="#7a7a7a">
    <animate attributeName="opacity" values="1;0" keyTimes="0;1" dur="1s" begin="-0.6181818181818182s" repeatCount="indefinite"></animate>
  </rect>
</g><g transform="rotate(137.45454545454547 50 50)">
  <rect x="49.5" y="18.5" rx="0.5" ry="12.5" width="1" height="25" fill="#7a7a7a">
    <animate attributeName="opacity" values="1;0" keyTimes="0;1" dur="1s" begin="-0.6s" repeatCount="indefinite"></animate>
  </rect>
</g><g transform="rotate(144 50 50)">
  <rect x="49.5" y="18.5" rx="0.5" ry="12.5" width="1" height="25" fill="#7a7a7a">
    <animate attributeName="opacity" values="1;0" keyTimes="0;1" dur="1s" begin="-0.5818181818181818s" repeatCount="indefinite"></animate>
  </rect>
</g><g transform="rotate(150.54545454545453 50 50)">
  <rect x="49.5" y="18.5" rx="0.5" ry="12.5" width="1" height="25" fill="#7a7a7a">
    <animate attributeName="opacity" values="1;0" keyTimes="0;1" dur="1s" begin="-0.5636363636363636s" repeatCount="indefinite"></animate>
  </rect>
</g><g transform="rotate(157.0909090909091 50 50)">
  <rect x="49.5" y="18.5" rx="0.5" ry="12.5" width="1" height="25" fill="#7a7a7a">
    <animate attributeName="opacity" values="1;0" keyTimes="0;1" dur="1s" begin="-0.5454545454545454s" repeatCount="indefinite"></animate>
  </rect>
</g><g transform="rotate(163.63636363636363 50 50)">
  <rect x="49.5" y="18.5" rx="0.5" ry="12.5" width="1" height="25" fill="#7a7a7a">
    <animate attributeName="opacity" values="1;0" keyTimes="0;1" dur="1s" begin="-0.5272727272727272s" repeatCount="indefinite"></animate>
  </rect>
</g><g transform="rotate(170.1818181818182 50 50)">
  <rect x="49.5" y="18.5" rx="0.5" ry="12.5" width="1" height="25" fill="#7a7a7a">
    <animate attributeName="opacity" values="1;0" keyTimes="0;1" dur="1s" begin="-0.509090909090909s" repeatCount="indefinite"></animate>
  </rect>
</g><g transform="rotate(176.72727272727272 50 50)">
  <rect x="49.5" y="18.5" rx="0.5" ry="12.5" width="1" height="25" fill="#7a7a7a">
    <animate attributeName="opacity" values="1;0" keyTimes="0;1" dur="1s" begin="-0.4909090909090909s" repeatCount="indefinite"></animate>
  </rect>
</g><g transform="rotate(183.27272727272728 50 50)">
  <rect x="49.5" y="18.5" rx="0.5" ry="12.5" width="1" height="25" fill="#7a7a7a">
    <animate attributeName="opacity" values="1;0" keyTimes="0;1" dur="1s" begin="-0.4727272727272727s" repeatCount="indefinite"></animate>
  </rect>
</g><g transform="rotate(189.8181818181818 50 50)">
  <rect x="49.5" y="18.5" rx="0.5" ry="12.5" width="1" height="25" fill="#7a7a7a">
    <animate attributeName="opacity" values="1;0" keyTimes="0;1" dur="1s" begin="-0.45454545454545453s" repeatCount="indefinite"></animate>
  </rect>
</g><g transform="rotate(196.36363636363637 50 50)">
  <rect x="49.5" y="18.5" rx="0.5" ry="12.5" width="1" height="25" fill="#7a7a7a">
    <animate attributeName="opacity" values="1;0" keyTimes="0;1" dur="1s" begin="-0.43636363636363634s" repeatCount="indefinite"></animate>
  </rect>
</g><g transform="rotate(202.9090909090909 50 50)">
  <rect x="49.5" y="18.5" rx="0.5" ry="12.5" width="1" height="25" fill="#7a7a7a">
    <animate attributeName="opacity" values="1;0" keyTimes="0;1" dur="1s" begin="-0.41818181818181815s" repeatCount="indefinite"></animate>
  </rect>
</g><g transform="rotate(209.45454545454547 50 50)">
  <rect x="49.5" y="18.5" rx="0.5" ry="12.5" width="1" height="25" fill="#7a7a7a">
    <animate attributeName="opacity" values="1;0" keyTimes="0;1" dur="1s" begin="-0.4s" repeatCount="indefinite"></animate>
  </rect>
</g><g transform="rotate(216 50 50)">
  <rect x="49.5" y="18.5" rx="0.5" ry="12.5" width="1" height="25" fill="#7a7a7a">
    <animate attributeName="opacity" values="1;0" keyTimes="0;1" dur="1s" begin="-0.38181818181818183s" repeatCount="indefinite"></animate>
  </rect>
</g><g transform="rotate(222.54545454545453 50 50)">
  <rect x="49.5" y="18.5" rx="0.5" ry="12.5" width="1" height="25" fill="#7a7a7a">
    <animate attributeName="opacity" values="1;0" keyTimes="0;1" dur="1s" begin="-0.36363636363636365s" repeatCount="indefinite"></animate>
  </rect>
</g><g transform="rotate(229.0909090909091 50 50)">
  <rect x="49.5" y="18.5" rx="0.5" ry="12.5" width="1" height="25" fill="#7a7a7a">
    <animate attributeName="opacity" values="1;0" keyTimes="0;1" dur="1s" begin="-0.34545454545454546s" repeatCount="indefinite"></animate>
  </rect>
</g><g transform="rotate(235.63636363636363 50 50)">
  <rect x="49.5" y="18.5" rx="0.5" ry="12.5" width="1" height="25" fill="#7a7a7a">
    <animate attributeName="opacity" values="1;0" keyTimes="0;1" dur="1s" begin="-0.32727272727272727s" repeatCount="indefinite"></animate>
  </rect>
</g><g transform="rotate(242.1818181818182 50 50)">
  <rect x="49.5" y="18.5" rx="0.5" ry="12.5" width="1" height="25" fill="#7a7a7a">
    <animate attributeName="opacity" values="1;0" keyTimes="0;1" dur="1s" begin="-0.3090909090909091s" repeatCount="indefinite"></animate>
  </rect>
</g><g transform="rotate(248.72727272727272 50 50)">
  <rect x="49.5" y="18.5" rx="0.5" ry="12.5" width="1" height="25" fill="#7a7a7a">
    <animate attributeName="opacity" values="1;0" keyTimes="0;1" dur="1s" begin="-0.2909090909090909s" repeatCount="indefinite"></animate>
  </rect>
</g><g transform="rotate(255.27272727272728 50 50)">
  <rect x="49.5" y="18.5" rx="0.5" ry="12.5" width="1" height="25" fill="#7a7a7a">
    <animate attributeName="opacity" values="1;0" keyTimes="0;1" dur="1s" begin="-0.2727272727272727s" repeatCount="indefinite"></animate>
  </rect>
</g><g transform="rotate(261.8181818181818 50 50)">
  <rect x="49.5" y="18.5" rx="0.5" ry="12.5" width="1" height="25" fill="#7a7a7a">
    <animate attributeName="opacity" values="1;0" keyTimes="0;1" dur="1s" begin="-0.2545454545454545s" repeatCount="indefinite"></animate>
  </rect>
</g><g transform="rotate(268.3636363636364 50 50)">
  <rect x="49.5" y="18.5" rx="0.5" ry="12.5" width="1" height="25" fill="#7a7a7a">
    <animate attributeName="opacity" values="1;0" keyTimes="0;1" dur="1s" begin="-0.23636363636363636s" repeatCount="indefinite"></animate>
  </rect>
</g><g transform="rotate(274.90909090909093 50 50)">
  <rect x="49.5" y="18.5" rx="0.5" ry="12.5" width="1" height="25" fill="#7a7a7a">
    <animate attributeName="opacity" values="1;0" keyTimes="0;1" dur="1s" begin="-0.21818181818181817s" repeatCount="indefinite"></animate>
  </rect>
</g><g transform="rotate(281.45454545454544 50 50)">
  <rect x="49.5" y="18.5" rx="0.5" ry="12.5" width="1" height="25" fill="#7a7a7a">
    <animate attributeName="opacity" values="1;0" keyTimes="0;1" dur="1s" begin="-0.2s" repeatCount="indefinite"></animate>
  </rect>
</g><g transform="rotate(288 50 50)">
  <rect x="49.5" y="18.5" rx="0.5" ry="12.5" width="1" height="25" fill="#7a7a7a">
    <animate attributeName="opacity" values="1;0" keyTimes="0;1" dur="1s" begin="-0.18181818181818182s" repeatCount="indefinite"></animate>
  </rect>
</g><g transform="rotate(294.54545454545456 50 50)">
  <rect x="49.5" y="18.5" rx="0.5" ry="12.5" width="1" height="25" fill="#7a7a7a">
    <animate attributeName="opacity" values="1;0" keyTimes="0;1" dur="1s" begin="-0.16363636363636364s" repeatCount="indefinite"></animate>
  </rect>
</g><g transform="rotate(301.09090909090907 50 50)">
  <rect x="49.5" y="18.5" rx="0.5" ry="12.5" width="1" height="25" fill="#7a7a7a">
    <animate attributeName="opacity" values="1;0" keyTimes="0;1" dur="1s" begin="-0.14545454545454545s" repeatCount="indefinite"></animate>
  </rect>
</g><g transform="rotate(307.6363636363636 50 50)">
  <rect x="49.5" y="18.5" rx="0.5" ry="12.5" width="1" height="25" fill="#7a7a7a">
    <animate attributeName="opacity" values="1;0" keyTimes="0;1" dur="1s" begin="-0.12727272727272726s" repeatCount="indefinite"></animate>
  </rect>
</g><g transform="rotate(314.1818181818182 50 50)">
  <rect x="49.5" y="18.5" rx="0.5" ry="12.5" width="1" height="25" fill="#7a7a7a">
    <animate attributeName="opacity" values="1;0" keyTimes="0;1" dur="1s" begin="-0.10909090909090909s" repeatCount="indefinite"></animate>
  </rect>
</g><g transform="rotate(320.72727272727275 50 50)">
  <rect x="49.5" y="18.5" rx="0.5" ry="12.5" width="1" height="25" fill="#7a7a7a">
    <animate attributeName="opacity" values="1;0" keyTimes="0;1" dur="1s" begin="-0.09090909090909091s" repeatCount="indefinite"></animate>
  </rect>
</g><g transform="rotate(327.27272727272725 50 50)">
  <rect x="49.5" y="18.5" rx="0.5" ry="12.5" width="1" height="25" fill="#7a7a7a">
    <animate attributeName="opacity" values="1;0" keyTimes="0;1" dur="1s" begin="-0.07272727272727272s" repeatCount="indefinite"></animate>
  </rect>
</g><g transform="rotate(333.8181818181818 50 50)">
  <rect x="49.5" y="18.5" rx="0.5" ry="12.5" width="1" height="25" fill="#7a7a7a">
    <animate attributeName="opacity" values="1;0" keyTimes="0;1" dur="1s" begin="-0.05454545454545454s" repeatCount="indefinite"></animate>
  </rect>
</g><g transform="rotate(340.3636363636364 50 50)">
  <rect x="49.5" y="18.5" rx="0.5" ry="12.5" width="1" height="25" fill="#7a7a7a">
    <animate attributeName="opacity" values="1;0" keyTimes="0;1" dur="1s" begin="-0.03636363636363636s" repeatCount="indefinite"></animate>
  </rect>
</g><g transform="rotate(346.90909090909093 50 50)">
  <rect x="49.5" y="18.5" rx="0.5" ry="12.5" width="1" height="25" fill="#7a7a7a">
    <animate attributeName="opacity" values="1;0" keyTimes="0;1" dur="1s" begin="-0.01818181818181818s" repeatCount="indefinite"></animate>
  </rect>
</g><g transform="rotate(353.45454545454544 50 50)">
  <rect x="49.5" y="18.5" rx="0.5" ry="12.5" width="1" height="25" fill="#7a7a7a">
    <animate attributeName="opacity" values="1;0" keyTimes="0;1" dur="1s" begin="0s" repeatCount="indefinite"></animate>
  </rect>
</g>
<!-- [ldio] generated by https://loading.io/ --></svg>